G04 #@! TF.FileFunction,Soldermask,Bot*
%FSLAX46Y46*%
G04 Gerber Fmt 4.6, Leading zero omitted, Abs format (unit mm)*
G04 Created by KiCad (PCBNEW (2016-03-18 BZR 6629)-product) date Sa 16 Apr 2016 02:00:58 CEST*
%MOMM*%
G01*
G04 APERTURE LIST*
%ADD10C,0.100000*%
%ADD11O,2.000000X2.000000*%
%ADD12C,1.850000*%
%ADD13C,2.000000*%
%ADD14R,4.972000X2.813000*%
%ADD15R,2.127200X2.432000*%
%ADD16O,2.127200X2.432000*%
%ADD17R,2.432000X2.432000*%
%ADD18O,2.432000X2.432000*%
G04 APERTURE END LIST*
D10*
D11*
X150350000Y-148900000D03*
X150350000Y-151440000D03*
X150350000Y-153980000D03*
X150350000Y-156520000D03*
X150350000Y-159060000D03*
X157970000Y-159060000D03*
X157970000Y-156520000D03*
X157970000Y-153980000D03*
X157970000Y-151440000D03*
X157970000Y-148900000D03*
D12*
X170180000Y-124160000D03*
X172720000Y-125430000D03*
X170180000Y-126700000D03*
X172720000Y-127970000D03*
X170180000Y-129240000D03*
X172720000Y-130510000D03*
X170180000Y-131780000D03*
X172720000Y-133050000D03*
X170180000Y-134320000D03*
X172720000Y-135590000D03*
D13*
X171980000Y-122760000D03*
D14*
X151140000Y-92120000D03*
X151140000Y-100920000D03*
X172710000Y-100920000D03*
X172710000Y-92120000D03*
D11*
X160350000Y-148900000D03*
X160350000Y-151440000D03*
X160350000Y-153980000D03*
X160350000Y-156520000D03*
X160350000Y-159060000D03*
X167970000Y-159060000D03*
X167970000Y-156520000D03*
X167970000Y-153980000D03*
X167970000Y-151440000D03*
X167970000Y-148900000D03*
D15*
X165400000Y-164850000D03*
D16*
X162860000Y-164850000D03*
X160320000Y-164850000D03*
X157780000Y-164850000D03*
D17*
X170150000Y-119775000D03*
D18*
X172690000Y-119775000D03*
M02*
