M48
;DRILL file {KiCad (2016-03-18 BZR 6629)-product} date Sa 16 Apr 2016 02:01:05 CEST
;FORMAT={2:4/ absolute / inch / suppress leading zeros}
FMAT,2
INCH,TZ
T1C0.012
T2C0.016
T3C0.031
T4C0.032
T5C0.040
%
G90
G05
M72
T1
X58819Y-47963
X58852Y-56987
X58868Y-57500
X59203Y-48839
X59401Y-55547
X59547Y-36811
X59547Y-38976
X60138Y-36811
X60138Y-38976
X60340Y-51430
X60492Y-46703
X60728Y-36811
X60728Y-38976
X60797Y-50719
X60906Y-43661
X61319Y-38976
X61407Y-49213
X61417Y-36811
X61476Y-48110
X61643Y-44580
X61693Y-53049
X61713Y-39665
X61713Y-40256
X61713Y-40846
X61713Y-41437
X61713Y-42028
X61713Y-42618
X61752Y-46476
X61870Y-49715
X61909Y-38976
X62008Y-36811
X62008Y-43031
X62047Y-51378
X62096Y-47717
X62303Y-38780
X62303Y-48524
X62352Y-51535
X62451Y-53287
X62461Y-52549
X62490Y-46575
X62598Y-36811
X62598Y-38484
X62648Y-55059
X62657Y-55571
X62667Y-54547
X62686Y-43566
X62687Y-47717
X62687Y-54094
X62697Y-48917
X62697Y-51280
X62707Y-53583
X62717Y-52185
X62756Y-45876
X63091Y-56004
X63140Y-48484
X63189Y-36811
X63336Y-44895
X63396Y-48789
X63661Y-43701
X63780Y-36811
X63819Y-43327
X63947Y-51270
X64134Y-43071
X64291Y-51289
X64370Y-36811
X64370Y-38976
X64370Y-39665
X64370Y-40256
X64370Y-40846
X64370Y-41437
X64370Y-42028
X64370Y-42618
X64685Y-44193
X64961Y-36811
X64961Y-38976
X65404Y-53573
X65413Y-54075
X65443Y-55069
X65453Y-54557
X65551Y-36811
X65551Y-38976
X65906Y-51722
X65945Y-55906
X66004Y-52638
X66142Y-36811
X66142Y-38976
X66181Y-55236
X66407Y-56594
X66407Y-57913
X66412Y-54713
X66644Y-57598
X66732Y-36811
X66732Y-38976
X67323Y-38976
X67411Y-44350
X67421Y-36811
X67913Y-38976
X68012Y-36811
X68114Y-57102
X68583Y-56644
T2
X59504Y-36268
X59504Y-39732
X67992Y-39685
X67996Y-36268
T3
X59193Y-58622
X59193Y-59622
X59193Y-60622
X59193Y-61622
X59193Y-62622
X62193Y-58622
X62193Y-59622
X62193Y-60622
X62193Y-61622
X62193Y-62622
X63130Y-58622
X63130Y-59622
X63130Y-60622
X63130Y-61622
X63130Y-62622
X66130Y-58622
X66130Y-59622
X66130Y-60622
X66130Y-61622
X66130Y-62622
T4
X67000Y-48882
X67000Y-49882
X67000Y-50882
X67000Y-51882
X67000Y-52882
X68000Y-49382
X68000Y-50382
X68000Y-51382
X68000Y-52382
X68000Y-53382
T5
X62118Y-64902
X63118Y-64902
X64118Y-64902
X65118Y-64902
X66988Y-47156
X67988Y-47156
T0
M30
