G04 #@! TF.FileFunction,Soldermask,Top*
%FSLAX46Y46*%
G04 Gerber Fmt 4.6, Leading zero omitted, Abs format (unit mm)*
G04 Created by KiCad (PCBNEW (2016-03-18 BZR 6629)-product) date Sa 16 Apr 2016 02:00:58 CEST*
%MOMM*%
G01*
G04 APERTURE LIST*
%ADD10C,0.100000*%
%ADD11O,2.000000X2.000000*%
%ADD12C,1.850000*%
%ADD13C,2.000000*%
%ADD14R,1.100000X1.700000*%
%ADD15R,1.700000X1.100000*%
%ADD16R,0.800000X1.000000*%
%ADD17R,1.000000X0.800000*%
%ADD18R,1.300000X0.900000*%
%ADD19R,0.900000X1.300000*%
%ADD20R,4.972000X2.813000*%
%ADD21R,4.471620X1.100000*%
%ADD22R,1.050000X1.460000*%
%ADD23R,4.057600X2.432000*%
%ADD24R,1.416000X2.432000*%
%ADD25R,1.700000X0.650000*%
%ADD26R,0.650000X1.700000*%
%ADD27R,0.700000X0.600000*%
%ADD28R,1.150000X1.200000*%
%ADD29R,2.200000X1.000000*%
%ADD30R,1.900000X1.000000*%
%ADD31R,0.849580X1.299160*%
%ADD32R,2.127200X2.432000*%
%ADD33O,2.127200X2.432000*%
%ADD34R,2.432000X2.432000*%
%ADD35O,2.432000X2.432000*%
G04 APERTURE END LIST*
D10*
D11*
X150350000Y-148900000D03*
X150350000Y-151440000D03*
X150350000Y-153980000D03*
X150350000Y-156520000D03*
X150350000Y-159060000D03*
X157970000Y-159060000D03*
X157970000Y-156520000D03*
X157970000Y-153980000D03*
X157970000Y-151440000D03*
X157970000Y-148900000D03*
D12*
X170180000Y-124160000D03*
X172720000Y-125430000D03*
X170180000Y-126700000D03*
X172720000Y-127970000D03*
X170180000Y-129240000D03*
X172720000Y-130510000D03*
X170180000Y-131780000D03*
X172720000Y-133050000D03*
X170180000Y-134320000D03*
X172720000Y-135590000D03*
D13*
X171980000Y-122760000D03*
D14*
X172300000Y-116800000D03*
X170400000Y-116800000D03*
D15*
X166475000Y-112700000D03*
X166475000Y-114600000D03*
D16*
X158322200Y-116333700D03*
X157422200Y-116333700D03*
D17*
X162972200Y-112383700D03*
X162972200Y-111483700D03*
D18*
X162200000Y-97950000D03*
X162200000Y-99450000D03*
X156572200Y-110883700D03*
X156572200Y-112383700D03*
D19*
X159222200Y-114833700D03*
X157722200Y-114833700D03*
D18*
X154672200Y-112983700D03*
X154672200Y-111483700D03*
D20*
X151140000Y-92120000D03*
D10*
G36*
X149548190Y-95990000D02*
X149548190Y-96990000D01*
X148647810Y-96790000D01*
X148647810Y-96190000D01*
X149548190Y-95990000D01*
X149548190Y-95990000D01*
G37*
D20*
X151140000Y-100920000D03*
D21*
X151384000Y-96490000D03*
D20*
X172710000Y-100920000D03*
D10*
G36*
X174301810Y-97050000D02*
X174301810Y-96050000D01*
X175202190Y-96250000D01*
X175202190Y-96850000D01*
X174301810Y-97050000D01*
X174301810Y-97050000D01*
G37*
D20*
X172710000Y-92120000D03*
D21*
X172466000Y-96550000D03*
D22*
X160172200Y-110658700D03*
X159222200Y-110658700D03*
X158272200Y-110658700D03*
X158272200Y-112858700D03*
X160172200Y-112858700D03*
X159222200Y-112858700D03*
D23*
X171182200Y-107896700D03*
D24*
X171182200Y-114500700D03*
X173468200Y-114500700D03*
X168896200Y-114500700D03*
D25*
X153772200Y-121333700D03*
X153772200Y-121833700D03*
X153772200Y-122333700D03*
X153772200Y-122833700D03*
X153772200Y-123333700D03*
X153772200Y-123833700D03*
X153772200Y-124333700D03*
X153772200Y-124833700D03*
X153772200Y-125333700D03*
X153772200Y-125833700D03*
X153772200Y-126333700D03*
X153772200Y-126833700D03*
D26*
X155372200Y-128433700D03*
X155872200Y-128433700D03*
X156372200Y-128433700D03*
X156872200Y-128433700D03*
X157372200Y-128433700D03*
X157872200Y-128433700D03*
X158372200Y-128433700D03*
X158872200Y-128433700D03*
X159372200Y-128433700D03*
X159872200Y-128433700D03*
X160372200Y-128433700D03*
X160872200Y-128433700D03*
D25*
X162472200Y-126833700D03*
X162472200Y-126333700D03*
X162472200Y-125833700D03*
X162472200Y-125333700D03*
X162472200Y-124833700D03*
X162472200Y-124333700D03*
X162472200Y-123833700D03*
X162472200Y-123333700D03*
X162472200Y-122833700D03*
X162472200Y-122333700D03*
X162472200Y-121833700D03*
X162472200Y-121333700D03*
D26*
X160872200Y-119733700D03*
X160372200Y-119733700D03*
X159872200Y-119733700D03*
X159372200Y-119733700D03*
X158872200Y-119733700D03*
X158372200Y-119733700D03*
X157872200Y-119733700D03*
X157372200Y-119733700D03*
X156872200Y-119733700D03*
X156372200Y-119733700D03*
X155872200Y-119733700D03*
X155372200Y-119733700D03*
D27*
X161250000Y-96495000D03*
X161250000Y-96945000D03*
X160750000Y-96945000D03*
X160750000Y-96495000D03*
D28*
X160200000Y-97950000D03*
X160200000Y-99450000D03*
X161700000Y-112550000D03*
X161700000Y-111050000D03*
X151450000Y-124550000D03*
X151450000Y-126050000D03*
D17*
X153650000Y-120175000D03*
X153650000Y-119275000D03*
D16*
X155200000Y-118050000D03*
X156100000Y-118050000D03*
X161100000Y-130200000D03*
X160200000Y-130200000D03*
D28*
X151450000Y-128975000D03*
X151450000Y-127475000D03*
D29*
X150900000Y-120825000D03*
X150900000Y-121775000D03*
X150900000Y-122725000D03*
D30*
X151300000Y-132205000D03*
X151300000Y-133475000D03*
X151300000Y-134745000D03*
X151300000Y-136015000D03*
X151300000Y-137285000D03*
X151300000Y-138555000D03*
X151300000Y-139825000D03*
X151300000Y-141095000D03*
X156700000Y-141095000D03*
X156700000Y-139825000D03*
X156700000Y-138555000D03*
X156700000Y-137285000D03*
X156700000Y-136015000D03*
X156700000Y-134745000D03*
X156700000Y-133475000D03*
X156700000Y-132205000D03*
D31*
X157051420Y-143649100D03*
X156251320Y-143649100D03*
X155451220Y-143649100D03*
X154651120Y-143649100D03*
X157051420Y-145350900D03*
X156251320Y-145350900D03*
X155451220Y-145350900D03*
X154651120Y-145350900D03*
X153401420Y-143649100D03*
X152601320Y-143649100D03*
X151801220Y-143649100D03*
X151001120Y-143649100D03*
X153401420Y-145350900D03*
X152601320Y-145350900D03*
X151801220Y-145350900D03*
X151001120Y-145350900D03*
D11*
X160350000Y-148900000D03*
X160350000Y-151440000D03*
X160350000Y-153980000D03*
X160350000Y-156520000D03*
X160350000Y-159060000D03*
X167970000Y-159060000D03*
X167970000Y-156520000D03*
X167970000Y-153980000D03*
X167970000Y-151440000D03*
X167970000Y-148900000D03*
D31*
X167051420Y-143649100D03*
X166251320Y-143649100D03*
X165451220Y-143649100D03*
X164651120Y-143649100D03*
X167051420Y-145350900D03*
X166251320Y-145350900D03*
X165451220Y-145350900D03*
X164651120Y-145350900D03*
X163401420Y-143649100D03*
X162601320Y-143649100D03*
X161801220Y-143649100D03*
X161001120Y-143649100D03*
X163401420Y-145350900D03*
X162601320Y-145350900D03*
X161801220Y-145350900D03*
X161001120Y-145350900D03*
D30*
X160750000Y-132255000D03*
X160750000Y-133525000D03*
X160750000Y-134795000D03*
X160750000Y-136065000D03*
X160750000Y-137335000D03*
X160750000Y-138605000D03*
X160750000Y-139875000D03*
X160750000Y-141145000D03*
X166150000Y-141145000D03*
X166150000Y-139875000D03*
X166150000Y-138605000D03*
X166150000Y-137335000D03*
X166150000Y-136065000D03*
X166150000Y-134795000D03*
X166150000Y-133525000D03*
X166150000Y-132255000D03*
D16*
X164900000Y-130250000D03*
X164000000Y-130250000D03*
X155025000Y-130550000D03*
X154125000Y-130550000D03*
D32*
X165400000Y-164850000D03*
D33*
X162860000Y-164850000D03*
X160320000Y-164850000D03*
X157780000Y-164850000D03*
D34*
X170150000Y-119775000D03*
D35*
X172690000Y-119775000D03*
D19*
X173010000Y-145970000D03*
X171510000Y-145970000D03*
X173020000Y-147650000D03*
X171520000Y-147650000D03*
M02*
