G04 #@! TF.FileFunction,Copper,L1,Top,Signal*
%FSLAX46Y46*%
G04 Gerber Fmt 4.6, Leading zero omitted, Abs format (unit mm)*
G04 Created by KiCad (PCBNEW (2016-03-18 BZR 6629)-product) date Sa 16 Apr 2016 02:00:58 CEST*
%MOMM*%
G01*
G04 APERTURE LIST*
%ADD10C,0.100000*%
%ADD11O,1.600000X1.600000*%
%ADD12C,1.450000*%
%ADD13R,0.700000X1.300000*%
%ADD14R,1.300000X0.700000*%
%ADD15R,0.400000X0.600000*%
%ADD16R,0.600000X0.400000*%
%ADD17R,0.900000X0.500000*%
%ADD18R,0.500000X0.900000*%
%ADD19R,4.572000X2.413000*%
%ADD20R,4.071620X0.700000*%
%ADD21R,0.650000X1.060000*%
%ADD22R,3.657600X2.032000*%
%ADD23R,1.016000X2.032000*%
%ADD24R,1.300000X0.250000*%
%ADD25R,0.250000X1.300000*%
%ADD26R,0.300000X0.200000*%
%ADD27R,0.750000X0.800000*%
%ADD28R,1.800000X0.600000*%
%ADD29R,1.500000X0.600000*%
%ADD30R,0.449580X0.899160*%
%ADD31R,1.727200X2.032000*%
%ADD32O,1.727200X2.032000*%
%ADD33R,2.032000X2.032000*%
%ADD34O,2.032000X2.032000*%
%ADD35C,0.630000*%
%ADD36C,0.600000*%
%ADD37C,0.152000*%
%ADD38C,0.500000*%
%ADD39C,0.356352*%
%ADD40C,0.950000*%
%ADD41C,0.250000*%
%ADD42C,0.230000*%
%ADD43C,0.638258*%
%ADD44C,0.160000*%
G04 APERTURE END LIST*
D10*
D11*
X150350000Y-148900000D03*
X150350000Y-151440000D03*
X150350000Y-153980000D03*
X150350000Y-156520000D03*
X150350000Y-159060000D03*
X157970000Y-159060000D03*
X157970000Y-156520000D03*
X157970000Y-153980000D03*
X157970000Y-151440000D03*
X157970000Y-148900000D03*
D12*
X170180000Y-124160000D03*
X172720000Y-125430000D03*
X170180000Y-126700000D03*
X172720000Y-127970000D03*
X170180000Y-129240000D03*
X172720000Y-130510000D03*
X170180000Y-131780000D03*
X172720000Y-133050000D03*
X170180000Y-134320000D03*
X172720000Y-135590000D03*
D13*
X172300000Y-116800000D03*
X170400000Y-116800000D03*
D14*
X166475000Y-112700000D03*
X166475000Y-114600000D03*
D15*
X158322200Y-116333700D03*
X157422200Y-116333700D03*
D16*
X162972200Y-112383700D03*
X162972200Y-111483700D03*
D17*
X162200000Y-97950000D03*
X162200000Y-99450000D03*
X156572200Y-110883700D03*
X156572200Y-112383700D03*
D18*
X159222200Y-114833700D03*
X157722200Y-114833700D03*
D17*
X154672200Y-112983700D03*
X154672200Y-111483700D03*
D19*
X151140000Y-92120000D03*
D10*
G36*
X149348190Y-96190000D02*
X149348190Y-96790000D01*
X148847810Y-96590000D01*
X148847810Y-96390000D01*
X149348190Y-96190000D01*
X149348190Y-96190000D01*
G37*
D19*
X151140000Y-100920000D03*
D20*
X151384000Y-96490000D03*
D19*
X172710000Y-100920000D03*
D10*
G36*
X174501810Y-96850000D02*
X174501810Y-96250000D01*
X175002190Y-96450000D01*
X175002190Y-96650000D01*
X174501810Y-96850000D01*
X174501810Y-96850000D01*
G37*
D19*
X172710000Y-92120000D03*
D20*
X172466000Y-96550000D03*
D21*
X160172200Y-110658700D03*
X159222200Y-110658700D03*
X158272200Y-110658700D03*
X158272200Y-112858700D03*
X160172200Y-112858700D03*
X159222200Y-112858700D03*
D22*
X171182200Y-107896700D03*
D23*
X171182200Y-114500700D03*
X173468200Y-114500700D03*
X168896200Y-114500700D03*
D24*
X153772200Y-121333700D03*
X153772200Y-121833700D03*
X153772200Y-122333700D03*
X153772200Y-122833700D03*
X153772200Y-123333700D03*
X153772200Y-123833700D03*
X153772200Y-124333700D03*
X153772200Y-124833700D03*
X153772200Y-125333700D03*
X153772200Y-125833700D03*
X153772200Y-126333700D03*
X153772200Y-126833700D03*
D25*
X155372200Y-128433700D03*
X155872200Y-128433700D03*
X156372200Y-128433700D03*
X156872200Y-128433700D03*
X157372200Y-128433700D03*
X157872200Y-128433700D03*
X158372200Y-128433700D03*
X158872200Y-128433700D03*
X159372200Y-128433700D03*
X159872200Y-128433700D03*
X160372200Y-128433700D03*
X160872200Y-128433700D03*
D24*
X162472200Y-126833700D03*
X162472200Y-126333700D03*
X162472200Y-125833700D03*
X162472200Y-125333700D03*
X162472200Y-124833700D03*
X162472200Y-124333700D03*
X162472200Y-123833700D03*
X162472200Y-123333700D03*
X162472200Y-122833700D03*
X162472200Y-122333700D03*
X162472200Y-121833700D03*
X162472200Y-121333700D03*
D25*
X160872200Y-119733700D03*
X160372200Y-119733700D03*
X159872200Y-119733700D03*
X159372200Y-119733700D03*
X158872200Y-119733700D03*
X158372200Y-119733700D03*
X157872200Y-119733700D03*
X157372200Y-119733700D03*
X156872200Y-119733700D03*
X156372200Y-119733700D03*
X155872200Y-119733700D03*
X155372200Y-119733700D03*
D26*
X161250000Y-96495000D03*
X161250000Y-96945000D03*
X160750000Y-96945000D03*
X160750000Y-96495000D03*
D27*
X160200000Y-97950000D03*
X160200000Y-99450000D03*
X161700000Y-112550000D03*
X161700000Y-111050000D03*
X151450000Y-124550000D03*
X151450000Y-126050000D03*
D16*
X153650000Y-120175000D03*
X153650000Y-119275000D03*
D15*
X155200000Y-118050000D03*
X156100000Y-118050000D03*
X161100000Y-130200000D03*
X160200000Y-130200000D03*
D27*
X151450000Y-128975000D03*
X151450000Y-127475000D03*
D28*
X150900000Y-120825000D03*
X150900000Y-121775000D03*
X150900000Y-122725000D03*
D29*
X151300000Y-132205000D03*
X151300000Y-133475000D03*
X151300000Y-134745000D03*
X151300000Y-136015000D03*
X151300000Y-137285000D03*
X151300000Y-138555000D03*
X151300000Y-139825000D03*
X151300000Y-141095000D03*
X156700000Y-141095000D03*
X156700000Y-139825000D03*
X156700000Y-138555000D03*
X156700000Y-137285000D03*
X156700000Y-136015000D03*
X156700000Y-134745000D03*
X156700000Y-133475000D03*
X156700000Y-132205000D03*
D30*
X157051420Y-143649100D03*
X156251320Y-143649100D03*
X155451220Y-143649100D03*
X154651120Y-143649100D03*
X157051420Y-145350900D03*
X156251320Y-145350900D03*
X155451220Y-145350900D03*
X154651120Y-145350900D03*
X153401420Y-143649100D03*
X152601320Y-143649100D03*
X151801220Y-143649100D03*
X151001120Y-143649100D03*
X153401420Y-145350900D03*
X152601320Y-145350900D03*
X151801220Y-145350900D03*
X151001120Y-145350900D03*
D11*
X160350000Y-148900000D03*
X160350000Y-151440000D03*
X160350000Y-153980000D03*
X160350000Y-156520000D03*
X160350000Y-159060000D03*
X167970000Y-159060000D03*
X167970000Y-156520000D03*
X167970000Y-153980000D03*
X167970000Y-151440000D03*
X167970000Y-148900000D03*
D30*
X167051420Y-143649100D03*
X166251320Y-143649100D03*
X165451220Y-143649100D03*
X164651120Y-143649100D03*
X167051420Y-145350900D03*
X166251320Y-145350900D03*
X165451220Y-145350900D03*
X164651120Y-145350900D03*
X163401420Y-143649100D03*
X162601320Y-143649100D03*
X161801220Y-143649100D03*
X161001120Y-143649100D03*
X163401420Y-145350900D03*
X162601320Y-145350900D03*
X161801220Y-145350900D03*
X161001120Y-145350900D03*
D29*
X160750000Y-132255000D03*
X160750000Y-133525000D03*
X160750000Y-134795000D03*
X160750000Y-136065000D03*
X160750000Y-137335000D03*
X160750000Y-138605000D03*
X160750000Y-139875000D03*
X160750000Y-141145000D03*
X166150000Y-141145000D03*
X166150000Y-139875000D03*
X166150000Y-138605000D03*
X166150000Y-137335000D03*
X166150000Y-136065000D03*
X166150000Y-134795000D03*
X166150000Y-133525000D03*
X166150000Y-132255000D03*
D15*
X164900000Y-130250000D03*
X164000000Y-130250000D03*
X155025000Y-130550000D03*
X154125000Y-130550000D03*
D31*
X165400000Y-164850000D03*
D32*
X162860000Y-164850000D03*
X160320000Y-164850000D03*
X157780000Y-164850000D03*
D33*
X170150000Y-119775000D03*
D34*
X172690000Y-119775000D03*
D18*
X173010000Y-145970000D03*
X171510000Y-145970000D03*
X173020000Y-147650000D03*
X171520000Y-147650000D03*
D35*
X153263803Y-130631470D03*
X150879494Y-141089065D03*
X168675000Y-143750000D03*
X174200000Y-143875000D03*
X163300000Y-130275000D03*
X150375000Y-124050000D03*
X159250000Y-130250000D03*
X159150000Y-141150000D03*
X153650000Y-118625000D03*
X149400000Y-121825000D03*
X164300000Y-112250000D03*
X156850000Y-118050000D03*
X172500000Y-99000000D03*
X171000000Y-99000000D03*
X169500000Y-99000000D03*
X168000000Y-99000000D03*
X166500000Y-99000000D03*
X165000000Y-99000000D03*
X163500000Y-99000000D03*
X163500000Y-100750000D03*
X163500000Y-102250000D03*
X163500000Y-103750000D03*
X163500000Y-105250000D03*
X163500000Y-106750000D03*
X163500000Y-108250000D03*
X162100000Y-110050000D03*
X162900000Y-109400000D03*
X156750000Y-100750000D03*
X156750000Y-102250000D03*
X156750000Y-103750000D03*
X156750000Y-105250000D03*
X156750000Y-106750000D03*
X156750000Y-108250000D03*
X157500000Y-109300000D03*
X154700000Y-110900000D03*
X159222200Y-110658700D03*
X161700000Y-111000000D03*
X158250000Y-98500000D03*
X159000000Y-97750000D03*
D36*
X151140000Y-92120000D03*
D35*
X172750000Y-93500000D03*
X171250000Y-93500000D03*
X169500000Y-93500000D03*
X168000000Y-93500000D03*
X166500000Y-93500000D03*
X165000000Y-93500000D03*
X163500000Y-93500000D03*
X162000000Y-93500000D03*
X160500000Y-93500000D03*
X159000000Y-93500000D03*
X157500000Y-93500000D03*
X156000000Y-93500000D03*
X154250000Y-93500000D03*
X152750000Y-93500000D03*
X151250000Y-93500000D03*
X157250000Y-99000000D03*
X155750000Y-99000000D03*
X154250000Y-99000000D03*
X152750000Y-99000000D03*
X151250000Y-99000000D03*
D36*
X151140000Y-100920000D03*
X172700000Y-100800000D03*
X172710000Y-92120000D03*
D35*
X159400000Y-116525000D03*
X159225000Y-121200000D03*
X156150000Y-122200000D03*
X155975000Y-125000000D03*
X173010000Y-145040000D03*
X171225000Y-112650000D03*
X158250000Y-123250000D03*
X159250000Y-124250000D03*
X160872200Y-114033700D03*
X156572200Y-113233700D03*
X160250000Y-142250000D03*
X167500000Y-142000000D03*
X158625000Y-135350000D03*
X158650000Y-133475000D03*
X157600000Y-130500000D03*
X166150000Y-137350000D03*
X159225000Y-137400000D03*
X158375000Y-130900000D03*
X159300000Y-132550000D03*
X166125000Y-136075000D03*
X159275000Y-136100000D03*
X149483837Y-144745890D03*
X169275000Y-146300000D03*
X168675000Y-147100000D03*
X157150000Y-126275000D03*
X154425000Y-128825000D03*
X149525000Y-146050000D03*
X168685744Y-138970938D03*
X166250000Y-138575000D03*
X159175000Y-138550000D03*
X160375000Y-123150000D03*
X158725000Y-118300000D03*
X156700000Y-134745000D03*
X162425000Y-130225000D03*
X168100000Y-140300000D03*
X167650000Y-133700000D03*
X167400000Y-131375000D03*
X161025000Y-123925000D03*
X157725000Y-121200000D03*
X166225000Y-139875000D03*
X159125000Y-139850000D03*
D37*
X158999999Y-143325001D02*
X158996001Y-143328999D01*
D38*
X172690000Y-119775000D02*
X172690000Y-117190000D01*
X172690000Y-117190000D02*
X172300000Y-116800000D01*
X172300000Y-116800000D02*
X172300000Y-116600000D01*
X172300000Y-116600000D02*
X173468200Y-115431800D01*
X173468200Y-115431800D02*
X173468200Y-114500700D01*
X171882200Y-120323700D02*
X171882200Y-120273700D01*
X170150000Y-119775000D02*
X170150000Y-117050000D01*
X170150000Y-117050000D02*
X170400000Y-116800000D01*
X168896200Y-114500700D02*
X168896200Y-115296200D01*
X168896200Y-115296200D02*
X170400000Y-116800000D01*
D39*
X166475000Y-114600000D02*
X168796900Y-114600000D01*
X168796900Y-114600000D02*
X168896200Y-114500700D01*
D38*
X169982200Y-120323700D02*
X169982200Y-120193700D01*
D39*
X154125000Y-130550000D02*
X153345273Y-130550000D01*
X153345273Y-130550000D02*
X153263803Y-130631470D01*
D38*
X150931874Y-141036685D02*
X150879494Y-141089065D01*
X151241685Y-141036685D02*
X150931874Y-141036685D01*
X151300000Y-141095000D02*
X151241685Y-141036685D01*
D40*
X174075000Y-143750000D02*
X168675000Y-143750000D01*
X174200000Y-143875000D02*
X174075000Y-143750000D01*
D39*
X164000000Y-130250000D02*
X163325000Y-130250000D01*
X163325000Y-130250000D02*
X163300000Y-130275000D01*
X151450000Y-124550000D02*
X150875000Y-124550000D01*
X150875000Y-124550000D02*
X150375000Y-124050000D01*
D41*
X159300000Y-130200000D02*
X159250000Y-130250000D01*
X159300000Y-130200000D02*
X160200000Y-130200000D01*
D38*
X160750000Y-141145000D02*
X159155000Y-141145000D01*
X159155000Y-141145000D02*
X159150000Y-141150000D01*
D41*
X153650000Y-119275000D02*
X153650000Y-118625000D01*
X150900000Y-121775000D02*
X149450000Y-121775000D01*
X149450000Y-121775000D02*
X149400000Y-121825000D01*
X162972200Y-111483700D02*
X163533700Y-111483700D01*
X163533700Y-111483700D02*
X164300000Y-112250000D01*
X153372200Y-111233700D02*
X154366300Y-111233700D01*
X154366300Y-111233700D02*
X154700000Y-110900000D01*
X156100000Y-118050000D02*
X156850000Y-118050000D01*
X156000000Y-121100000D02*
X155872200Y-120972200D01*
X155872200Y-120972200D02*
X155872200Y-119733700D01*
X156905900Y-121100000D02*
X156000000Y-121100000D01*
X157372200Y-119733700D02*
X157372200Y-120633700D01*
X157372200Y-120633700D02*
X156905900Y-121100000D01*
X156100000Y-118050000D02*
X156100000Y-118150000D01*
X156100000Y-118150000D02*
X155872200Y-118377800D01*
X155872200Y-118377800D02*
X155872200Y-118677800D01*
X155872200Y-119733700D02*
X155872200Y-118677800D01*
X153772200Y-124833700D02*
X152475000Y-124833700D01*
X152475000Y-124833700D02*
X151733700Y-124833700D01*
X151733700Y-124833700D02*
X151450000Y-124550000D01*
X160372200Y-128433700D02*
X160372200Y-130027800D01*
X160372200Y-130027800D02*
X160200000Y-130200000D01*
D42*
X163500000Y-108250000D02*
X163500000Y-108800000D01*
D41*
X172710000Y-99210000D02*
X172500000Y-99000000D01*
X171000000Y-99000000D02*
X169500000Y-99000000D01*
X168000000Y-99000000D02*
X166500000Y-99000000D01*
X165000000Y-99000000D02*
X163500000Y-99000000D01*
X163500000Y-100750000D02*
X163500000Y-102250000D01*
X163500000Y-103750000D02*
X163500000Y-105250000D01*
X163500000Y-106750000D02*
X163500000Y-108250000D01*
X172710000Y-100920000D02*
X172710000Y-99210000D01*
D42*
X163500000Y-108800000D02*
X162900000Y-109400000D01*
D41*
X156750000Y-100750000D02*
X156750000Y-102250000D01*
X156750000Y-103750000D02*
X156750000Y-105250000D01*
X156750000Y-106750000D02*
X156750000Y-108250000D01*
D42*
X154672200Y-111483700D02*
X154672200Y-110927800D01*
X154672200Y-110927800D02*
X154700000Y-110900000D01*
D39*
X161700000Y-111000000D02*
X161700000Y-111050000D01*
X162972200Y-111483700D02*
X162133700Y-111483700D01*
X162133700Y-111483700D02*
X161700000Y-111050000D01*
D41*
X159000000Y-97750000D02*
X158250000Y-98500000D01*
X169500000Y-93500000D02*
X171250000Y-93500000D01*
X166500000Y-93500000D02*
X168000000Y-93500000D01*
X163500000Y-93500000D02*
X165000000Y-93500000D01*
X160500000Y-93500000D02*
X162000000Y-93500000D01*
X157500000Y-93500000D02*
X159000000Y-93500000D01*
X155750000Y-93500000D02*
X156000000Y-93500000D01*
X154250000Y-93500000D02*
X155750000Y-93500000D01*
X151250000Y-93500000D02*
X152750000Y-93500000D01*
X151140000Y-100920000D02*
X151140000Y-99110000D01*
X155750000Y-99000000D02*
X157250000Y-99000000D01*
X152750000Y-99000000D02*
X154250000Y-99000000D01*
X151140000Y-99110000D02*
X151250000Y-99000000D01*
X157422200Y-116333700D02*
X157272200Y-116333700D01*
X157272200Y-116333700D02*
X156472200Y-115533700D01*
X156472200Y-115533700D02*
X156472200Y-115233700D01*
X156472200Y-115233700D02*
X155972200Y-114733700D01*
X155972200Y-114733700D02*
X154372200Y-114733700D01*
X154372200Y-114733700D02*
X153372200Y-113733700D01*
X153372200Y-113733700D02*
X153372200Y-111233700D01*
X172700000Y-100800000D02*
X172710000Y-100810000D01*
X172710000Y-100810000D02*
X172710000Y-100920000D01*
X153772200Y-126333700D02*
X154591300Y-126333700D01*
X159208700Y-116333700D02*
X158322200Y-116333700D01*
X159400000Y-116525000D02*
X159208700Y-116333700D01*
X159125000Y-121200000D02*
X159225000Y-121200000D01*
X158425000Y-121900000D02*
X159125000Y-121200000D01*
X156450000Y-121900000D02*
X158425000Y-121900000D01*
X156150000Y-122200000D02*
X156450000Y-121900000D01*
X155925000Y-125000000D02*
X155975000Y-125000000D01*
X154591300Y-126333700D02*
X155925000Y-125000000D01*
X158322200Y-116333700D02*
X158472200Y-116333700D01*
X158472200Y-116333700D02*
X159222200Y-115583700D01*
X159222200Y-115583700D02*
X159222200Y-114833700D01*
X159222200Y-112858700D02*
X159222200Y-114833700D01*
D42*
X161250000Y-96945000D02*
X161405120Y-96945000D01*
X161405120Y-96945000D02*
X162200000Y-97739880D01*
X162200000Y-97739880D02*
X162200000Y-97950000D01*
D41*
X162200000Y-97900000D02*
X162200000Y-97950000D01*
X156572200Y-110883700D02*
X158047200Y-110883700D01*
X158047200Y-110883700D02*
X158272200Y-110658700D01*
X157722200Y-114833700D02*
X157722200Y-113933700D01*
X157722200Y-113933700D02*
X157772200Y-113933700D01*
X154672200Y-112983700D02*
X154672200Y-113033700D01*
X154672200Y-113033700D02*
X155572200Y-113933700D01*
X155572200Y-113933700D02*
X157772200Y-113933700D01*
X157772200Y-113933700D02*
X158272200Y-113433700D01*
X158272200Y-113433700D02*
X158272200Y-112858700D01*
D42*
X160750000Y-96495000D02*
X159320940Y-96495000D01*
X159320940Y-96495000D02*
X159315940Y-96490000D01*
D40*
X151384000Y-96490000D02*
X159315940Y-96490000D01*
X159315940Y-96490000D02*
X159316420Y-96489520D01*
X151384000Y-96490000D02*
X149098000Y-96490000D01*
D42*
X161250000Y-96495000D02*
X162565480Y-96495000D01*
D40*
X162620480Y-96550000D02*
X172466000Y-96550000D01*
D42*
X162565480Y-96495000D02*
X162620480Y-96550000D01*
D40*
X172466000Y-96550000D02*
X174752000Y-96550000D01*
D39*
X172411000Y-96495000D02*
X172466000Y-96550000D01*
D43*
X160200000Y-99450000D02*
X160200000Y-110630900D01*
X160200000Y-110630900D02*
X160172200Y-110658700D01*
D38*
X160200000Y-110630900D02*
X160172200Y-110658700D01*
D44*
X153772200Y-123333700D02*
X153008700Y-123333700D01*
X152050000Y-120825000D02*
X150900000Y-120825000D01*
X152275000Y-121050000D02*
X152050000Y-120825000D01*
X152275000Y-122600000D02*
X152275000Y-121050000D01*
X153008700Y-123333700D02*
X152275000Y-122600000D01*
X150900000Y-122725000D02*
X151350000Y-122725000D01*
X151350000Y-122725000D02*
X152458700Y-123833700D01*
X152458700Y-123833700D02*
X153772200Y-123833700D01*
D41*
X151008700Y-122833700D02*
X150900000Y-122725000D01*
X160456820Y-97043180D02*
X160456820Y-97693180D01*
X160456820Y-97693180D02*
X160200000Y-97950000D01*
D42*
X160750000Y-96945000D02*
X160555000Y-96945000D01*
X160555000Y-96945000D02*
X160456820Y-97043180D01*
X160456820Y-97043180D02*
X160400000Y-97100000D01*
D41*
X173010000Y-145970000D02*
X173010000Y-145040000D01*
X173010000Y-145970000D02*
X173010000Y-147640000D01*
X173010000Y-147640000D02*
X173020000Y-147650000D01*
D38*
X171182200Y-112692800D02*
X171182200Y-112700000D01*
X171225000Y-112650000D02*
X171182200Y-112692800D01*
X166475000Y-112700000D02*
X165250000Y-112700000D01*
X165250000Y-112700000D02*
X164875000Y-113075000D01*
X166475000Y-112700000D02*
X171182200Y-112700000D01*
X171000000Y-112725000D02*
X171182200Y-112725000D01*
X171182200Y-112700000D02*
X171157200Y-112725000D01*
X171157200Y-112725000D02*
X171000000Y-112725000D01*
D39*
X162972200Y-112383700D02*
X162972200Y-112622200D01*
X162972200Y-112622200D02*
X163425000Y-113075000D01*
X163425000Y-113075000D02*
X164875000Y-113075000D01*
D38*
X155200000Y-118050000D02*
X155200000Y-117525000D01*
X164875000Y-113825000D02*
X164875000Y-113075000D01*
X161300000Y-117400000D02*
X164875000Y-113825000D01*
X158825000Y-117400000D02*
X161300000Y-117400000D01*
X158625000Y-117200000D02*
X158825000Y-117400000D01*
X155525000Y-117200000D02*
X158625000Y-117200000D01*
X155200000Y-117525000D02*
X155525000Y-117200000D01*
D41*
X153195013Y-127854987D02*
X154010053Y-127854987D01*
X151450000Y-128975000D02*
X152075000Y-128975000D01*
X154010053Y-127854987D02*
X156355041Y-125509999D01*
X156355041Y-125509999D02*
X159009999Y-125509999D01*
X159009999Y-125509999D02*
X159250000Y-125750000D01*
X152075000Y-128975000D02*
X153195013Y-127854987D01*
D39*
X164900000Y-130250000D02*
X164900000Y-131005000D01*
X164900000Y-131005000D02*
X165145000Y-131250000D01*
X155025000Y-130550000D02*
X155045000Y-130550000D01*
X155045000Y-130550000D02*
X156700000Y-132205000D01*
D38*
X171182200Y-107896700D02*
X171182200Y-112725000D01*
X171182200Y-112725000D02*
X171182200Y-114500700D01*
X166150000Y-132255000D02*
X167505000Y-132255000D01*
X167505000Y-132255000D02*
X169570000Y-134320000D01*
X169570000Y-134320000D02*
X170180000Y-134320000D01*
X156700000Y-132205000D02*
X158295000Y-132205000D01*
X165145000Y-131250000D02*
X166150000Y-132255000D01*
X159250000Y-131250000D02*
X165145000Y-131250000D01*
X158295000Y-132205000D02*
X159250000Y-131250000D01*
X171224300Y-114500700D02*
X171182200Y-114500700D01*
D41*
X158250000Y-123250000D02*
X155450000Y-123250000D01*
X154825000Y-120925000D02*
X154825000Y-121825000D01*
X159250000Y-124250000D02*
X159250000Y-125750000D01*
X154825000Y-122625000D02*
X154825000Y-121825000D01*
X155450000Y-123250000D02*
X154825000Y-122625000D01*
X153650000Y-120175000D02*
X154075000Y-120175000D01*
X154075000Y-120175000D02*
X154825000Y-120925000D01*
X153772200Y-121333700D02*
X153208700Y-121333700D01*
X160872200Y-128433700D02*
X160872200Y-127372200D01*
X160872200Y-127372200D02*
X159250000Y-125750000D01*
X154825000Y-120925000D02*
X154825000Y-120805900D01*
X155200000Y-118700000D02*
X155238500Y-118700000D01*
X155238500Y-118700000D02*
X155372200Y-118833700D01*
X155372200Y-118833700D02*
X155372200Y-119733700D01*
X155200000Y-118050000D02*
X155200000Y-118700000D01*
X153772200Y-121333700D02*
X154297200Y-121333700D01*
X154297200Y-121333700D02*
X154825000Y-120805900D01*
X154825000Y-120805900D02*
X155372200Y-120258700D01*
X155372200Y-120258700D02*
X155372200Y-119733700D01*
X160872200Y-128433700D02*
X160872200Y-129972200D01*
X160872200Y-129972200D02*
X161100000Y-130200000D01*
D39*
X162972200Y-112383700D02*
X161866300Y-112383700D01*
X161866300Y-112383700D02*
X161700000Y-112550000D01*
D43*
X160172200Y-112858700D02*
X161391300Y-112858700D01*
X161391300Y-112858700D02*
X161700000Y-112550000D01*
D41*
X156572200Y-112383700D02*
X156572200Y-113233700D01*
X160872200Y-114033700D02*
X160172200Y-113333700D01*
X160172200Y-113333700D02*
X160172200Y-112858700D01*
X151450000Y-127475000D02*
X151450000Y-126050000D01*
X152000000Y-125750000D02*
X151750000Y-125750000D01*
X151750000Y-125750000D02*
X151450000Y-126050000D01*
X152416300Y-125333700D02*
X152000000Y-125750000D01*
X153772200Y-125333700D02*
X152416300Y-125333700D01*
X170180000Y-124160000D02*
X167860000Y-124160000D01*
X158141300Y-124333700D02*
X153772200Y-124333700D01*
X160200000Y-122275000D02*
X158141300Y-124333700D01*
X160200000Y-122100000D02*
X160200000Y-122275000D01*
X162125000Y-120175000D02*
X160200000Y-122100000D01*
X163875000Y-120175000D02*
X162125000Y-120175000D01*
X167860000Y-124160000D02*
X163875000Y-120175000D01*
D42*
X166275000Y-129900000D02*
X166275000Y-130025000D01*
D41*
X163908700Y-124333700D02*
X166275000Y-126700000D01*
X166275000Y-126700000D02*
X166275000Y-129900000D01*
X169450000Y-133075000D02*
X170825000Y-133075000D01*
X172720000Y-134970000D02*
X170825000Y-133075000D01*
X163908700Y-124333700D02*
X162472200Y-124333700D01*
D42*
X168900000Y-132525000D02*
X169450000Y-133075000D01*
X168900000Y-131850000D02*
X168900000Y-132525000D01*
X167550000Y-130500000D02*
X168900000Y-131850000D01*
X166750000Y-130500000D02*
X167550000Y-130500000D01*
X166275000Y-130025000D02*
X166750000Y-130500000D01*
D41*
X172720000Y-134970000D02*
X172720000Y-135590000D01*
X162472200Y-123833700D02*
X164258700Y-123833700D01*
X170775000Y-130500000D02*
X172720000Y-132445000D01*
X168375000Y-130500000D02*
X170775000Y-130500000D01*
X166775000Y-128900000D02*
X168375000Y-130500000D01*
X166775000Y-126350000D02*
X166775000Y-128900000D01*
X164258700Y-123833700D02*
X166775000Y-126350000D01*
X172720000Y-132445000D02*
X172720000Y-133050000D01*
X162472200Y-122333700D02*
X163683700Y-122333700D01*
X168840000Y-129240000D02*
X170180000Y-129240000D01*
X167500000Y-127900000D02*
X168840000Y-129240000D01*
X167500000Y-126150000D02*
X167500000Y-127900000D01*
X163683700Y-122333700D02*
X167500000Y-126150000D01*
X160872200Y-119733700D02*
X160872200Y-118877800D01*
X171375000Y-125505000D02*
X170180000Y-126700000D01*
X171375000Y-123800000D02*
X171375000Y-125505000D01*
X170075000Y-122500000D02*
X171375000Y-123800000D01*
X167450000Y-122500000D02*
X170075000Y-122500000D01*
X163600000Y-118650000D02*
X167450000Y-122500000D01*
X161100000Y-118650000D02*
X163600000Y-118650000D01*
X160872200Y-118877800D02*
X161100000Y-118650000D01*
D42*
X151001120Y-145350900D02*
X151001120Y-148248880D01*
X151001120Y-148248880D02*
X150350000Y-148900000D01*
X151801220Y-145350900D02*
X151801220Y-149988780D01*
X151801220Y-149988780D02*
X150350000Y-151440000D01*
X152601320Y-145350900D02*
X152601320Y-154268680D01*
X152601320Y-154268680D02*
X150350000Y-156520000D01*
X153401420Y-145350900D02*
X153401420Y-156008580D01*
X153401420Y-156008580D02*
X150350000Y-159060000D01*
X154651120Y-145350900D02*
X154651120Y-155741120D01*
X154651120Y-155741120D02*
X157970000Y-159060000D01*
X155451220Y-145350900D02*
X155451220Y-154001220D01*
X155451220Y-154001220D02*
X157970000Y-156520000D01*
X156251320Y-145350900D02*
X156251320Y-149721320D01*
X156251320Y-149721320D02*
X157970000Y-151440000D01*
X157051420Y-145350900D02*
X157051420Y-147981420D01*
X157051420Y-147981420D02*
X157970000Y-148900000D01*
X166600000Y-134795000D02*
X167500000Y-135695000D01*
X166150000Y-134795000D02*
X166600000Y-134795000D01*
X167500000Y-135695000D02*
X167500000Y-141554523D01*
X167500000Y-141554523D02*
X167500000Y-142000000D01*
X157105000Y-141500000D02*
X156700000Y-141095000D01*
X157750000Y-141500000D02*
X157105000Y-141500000D01*
X158500000Y-142250000D02*
X157750000Y-141500000D01*
X160250000Y-142250000D02*
X158500000Y-142250000D01*
X157051420Y-143649100D02*
X157051420Y-143351420D01*
X157051420Y-143351420D02*
X155250000Y-141550000D01*
X155250000Y-141550000D02*
X155250000Y-134050000D01*
X155250000Y-134050000D02*
X155825000Y-133475000D01*
X155825000Y-133475000D02*
X156700000Y-133475000D01*
X156251320Y-143649100D02*
X156251320Y-143351320D01*
X156251320Y-143351320D02*
X154800000Y-141900000D01*
X154800000Y-141900000D02*
X154800000Y-134550000D01*
X154800000Y-134550000D02*
X152455000Y-132205000D01*
X152455000Y-132205000D02*
X151300000Y-132205000D01*
X155451220Y-143649100D02*
X155451220Y-143201220D01*
X155451220Y-143201220D02*
X154400000Y-142150000D01*
X154400000Y-142150000D02*
X154400000Y-135650000D01*
X154400000Y-135650000D02*
X152225000Y-133475000D01*
X152225000Y-133475000D02*
X151300000Y-133475000D01*
X154651120Y-143649100D02*
X154651120Y-143001120D01*
X152545000Y-134745000D02*
X151300000Y-134745000D01*
X154000000Y-136200000D02*
X152545000Y-134745000D01*
X154000000Y-142350000D02*
X154000000Y-136200000D01*
X154651120Y-143001120D02*
X154000000Y-142350000D01*
X153401420Y-143649100D02*
X153401420Y-142498580D01*
X152215000Y-136015000D02*
X151300000Y-136015000D01*
X153600000Y-137400000D02*
X152215000Y-136015000D01*
X153600000Y-142300000D02*
X153600000Y-137400000D01*
X153401420Y-142498580D02*
X153600000Y-142300000D01*
X152601320Y-143649100D02*
X152601320Y-142598680D01*
X153210004Y-138660004D02*
X151835000Y-137285000D01*
X153210004Y-141989996D02*
X153210004Y-138660004D01*
X152601320Y-142598680D02*
X153210004Y-141989996D01*
X151835000Y-137285000D02*
X151300000Y-137285000D01*
X151801220Y-143649100D02*
X151801220Y-142748780D01*
X152105000Y-138555000D02*
X151300000Y-138555000D01*
X152830002Y-139280002D02*
X152105000Y-138555000D01*
X152830002Y-141719998D02*
X152830002Y-139280002D01*
X151801220Y-142748780D02*
X152830002Y-141719998D01*
X151001120Y-143649100D02*
X151001120Y-142498880D01*
X152450000Y-140300000D02*
X151975000Y-139825000D01*
X152450000Y-141550000D02*
X152450000Y-140300000D01*
X152200000Y-141800000D02*
X152450000Y-141550000D01*
X151700000Y-141800000D02*
X152200000Y-141800000D01*
X151001120Y-142498880D02*
X151700000Y-141800000D01*
X151975000Y-139825000D02*
X151300000Y-139825000D01*
X161001120Y-145350900D02*
X161001120Y-148248880D01*
X161001120Y-148248880D02*
X160350000Y-148900000D01*
X161801220Y-145350900D02*
X161801220Y-149988780D01*
X161801220Y-149988780D02*
X160350000Y-151440000D01*
X162601320Y-145350900D02*
X162601320Y-154268680D01*
X162601320Y-154268680D02*
X160350000Y-156520000D01*
X163401420Y-145350900D02*
X163401420Y-156008580D01*
X163401420Y-156008580D02*
X160350000Y-159060000D01*
X164651120Y-145350900D02*
X164651120Y-155741120D01*
X164651120Y-155741120D02*
X167970000Y-159060000D01*
X165451220Y-145350900D02*
X165451220Y-154001220D01*
X165451220Y-154001220D02*
X167970000Y-156520000D01*
X166251320Y-145350900D02*
X166251320Y-149721320D01*
X166251320Y-149721320D02*
X167970000Y-151440000D01*
X167051420Y-145350900D02*
X167051420Y-147981420D01*
X167051420Y-147981420D02*
X167970000Y-148900000D01*
X167051420Y-143649100D02*
X167051420Y-143301420D01*
X167051420Y-143301420D02*
X166450000Y-142700000D01*
X166450000Y-142700000D02*
X166200000Y-142700000D01*
X166200000Y-142700000D02*
X165000000Y-141500000D01*
X165000000Y-141500000D02*
X165000000Y-133950000D01*
X165000000Y-133950000D02*
X165425000Y-133525000D01*
X165425000Y-133525000D02*
X166150000Y-133525000D01*
X166251320Y-143649100D02*
X166251320Y-143351320D01*
X166251320Y-143351320D02*
X164600000Y-141700000D01*
X164600000Y-141700000D02*
X164600000Y-141550000D01*
X164600000Y-141550000D02*
X164450000Y-141400000D01*
X164450000Y-141400000D02*
X164450000Y-134700000D01*
X164450000Y-134700000D02*
X162005000Y-132255000D01*
X162005000Y-132255000D02*
X160750000Y-132255000D01*
X165451220Y-143649100D02*
X165451220Y-143201220D01*
X165451220Y-143201220D02*
X164200000Y-141950000D01*
X164200000Y-141950000D02*
X164200000Y-141750000D01*
X164200000Y-141750000D02*
X164050000Y-141600000D01*
X164050000Y-141600000D02*
X164050000Y-135350000D01*
X164050000Y-135350000D02*
X162225000Y-133525000D01*
X162225000Y-133525000D02*
X160750000Y-133525000D01*
X164651120Y-143649100D02*
X164651120Y-143001120D01*
X162145000Y-134795000D02*
X160750000Y-134795000D01*
X163650000Y-136300000D02*
X162145000Y-134795000D01*
X163650000Y-141850000D02*
X163650000Y-136300000D01*
X163800000Y-142000000D02*
X163650000Y-141850000D01*
X163800000Y-142150000D02*
X163800000Y-142000000D01*
X164651120Y-143001120D02*
X163800000Y-142150000D01*
X163401420Y-143649100D02*
X163401420Y-142201420D01*
X161765000Y-136065000D02*
X160750000Y-136065000D01*
X163250000Y-137550000D02*
X161765000Y-136065000D01*
X163250000Y-142050000D02*
X163250000Y-137550000D01*
X163401420Y-142201420D02*
X163250000Y-142050000D01*
X162601320Y-143649100D02*
X162601320Y-142048680D01*
X161735000Y-137335000D02*
X160750000Y-137335000D01*
X162800000Y-138400000D02*
X161735000Y-137335000D01*
X162800000Y-141850000D02*
X162800000Y-138400000D01*
X162601320Y-142048680D02*
X162800000Y-141850000D01*
X161801220Y-143649100D02*
X161801220Y-142298780D01*
X161555000Y-138605000D02*
X160750000Y-138605000D01*
X162380002Y-139430002D02*
X161555000Y-138605000D01*
X162380002Y-141719998D02*
X162380002Y-139430002D01*
X161801220Y-142298780D02*
X162380002Y-141719998D01*
X161001120Y-143649100D02*
X161001120Y-142198880D01*
X161625000Y-139875000D02*
X160750000Y-139875000D01*
X162000000Y-140250000D02*
X161625000Y-139875000D01*
X162000000Y-141550000D02*
X162000000Y-140250000D01*
X161700000Y-141850000D02*
X162000000Y-141550000D01*
X161350000Y-141850000D02*
X161700000Y-141850000D01*
X161001120Y-142198880D02*
X161350000Y-141850000D01*
X157872200Y-128433700D02*
X157872200Y-130202800D01*
X158625000Y-133500000D02*
X158625000Y-135350000D01*
X158650000Y-133475000D02*
X158625000Y-133500000D01*
X157600000Y-130475000D02*
X157600000Y-130500000D01*
X157872200Y-130202800D02*
X157600000Y-130475000D01*
X156700000Y-137285000D02*
X159110000Y-137285000D01*
X166150000Y-137350000D02*
X166150000Y-137335000D01*
X159110000Y-137285000D02*
X159225000Y-137400000D01*
X159275000Y-136100000D02*
X159275000Y-132575000D01*
X158372200Y-130897200D02*
X158372200Y-128433700D01*
X158375000Y-130900000D02*
X158372200Y-130897200D01*
X159275000Y-132575000D02*
X159300000Y-132550000D01*
X156700000Y-136015000D02*
X159190000Y-136015000D01*
X166125000Y-136075000D02*
X166135000Y-136065000D01*
X159190000Y-136015000D02*
X159275000Y-136100000D01*
X166135000Y-136065000D02*
X166150000Y-136065000D01*
D41*
X171520000Y-147650000D02*
X170925000Y-147650000D01*
X170925000Y-147650000D02*
X170775000Y-147800000D01*
D42*
X149168838Y-131918746D02*
X149168838Y-144430891D01*
X151092594Y-129994990D02*
X149168838Y-131918746D01*
X154146598Y-128244998D02*
X152396606Y-129994990D01*
X154190298Y-128244998D02*
X154146598Y-128244998D01*
X149168838Y-144430891D02*
X149483837Y-144745890D01*
X155555295Y-126880001D02*
X154190298Y-128244998D01*
X158698501Y-126880001D02*
X155555295Y-126880001D01*
X159372200Y-127553700D02*
X158698501Y-126880001D01*
X159372200Y-128433700D02*
X159372200Y-127553700D01*
X152396606Y-129994990D02*
X151092594Y-129994990D01*
X170775000Y-162150000D02*
X170775000Y-147800000D01*
X170775000Y-147800000D02*
X169275000Y-146300000D01*
X169950000Y-162975000D02*
X170775000Y-162150000D01*
X160949000Y-162975000D02*
X169950000Y-162975000D01*
X160320000Y-164850000D02*
X160320000Y-163604000D01*
X160320000Y-163604000D02*
X160949000Y-162975000D01*
D41*
X171510000Y-145970000D02*
X170390000Y-145970000D01*
X168675000Y-145665000D02*
X168675000Y-147100000D01*
X168900000Y-145440000D02*
X168675000Y-145665000D01*
X169860000Y-145440000D02*
X168900000Y-145440000D01*
X170390000Y-145970000D02*
X169860000Y-145440000D01*
D42*
X170350000Y-148350000D02*
X169100000Y-147100000D01*
X169100000Y-147100000D02*
X168675000Y-147100000D01*
X170350000Y-161775000D02*
X170350000Y-148350000D01*
X169600000Y-162525000D02*
X170350000Y-161775000D01*
X158859000Y-162525000D02*
X169600000Y-162525000D01*
X157780000Y-163604000D02*
X158859000Y-162525000D01*
X159125000Y-126275000D02*
X159872200Y-127022200D01*
X159872200Y-127022200D02*
X159872200Y-128433700D01*
X157150000Y-126275000D02*
X159125000Y-126275000D01*
X154250000Y-128825000D02*
X154425000Y-128825000D01*
X152475000Y-130600000D02*
X154250000Y-128825000D01*
X151025000Y-130600000D02*
X152475000Y-130600000D01*
X149675000Y-131950000D02*
X151025000Y-130600000D01*
X149675000Y-143725000D02*
X149675000Y-131950000D01*
X150125000Y-144175000D02*
X149675000Y-143725000D01*
X150125000Y-144925000D02*
X150125000Y-144175000D01*
X149839999Y-145210001D02*
X150125000Y-144925000D01*
X149839999Y-145735001D02*
X149839999Y-145210001D01*
X149525000Y-146050000D02*
X149839999Y-145735001D01*
X157780000Y-164850000D02*
X157780000Y-163604000D01*
D44*
X174200000Y-137400000D02*
X172629062Y-138970938D01*
X169131221Y-138970938D02*
X168685744Y-138970938D01*
X173125000Y-121525000D02*
X174200000Y-122600000D01*
X167900000Y-121525000D02*
X173125000Y-121525000D01*
X159872200Y-119733700D02*
X159872200Y-118923700D01*
X172629062Y-138970938D02*
X169131221Y-138970938D01*
X160745900Y-118050000D02*
X164425000Y-118050000D01*
X159872200Y-118923700D02*
X160745900Y-118050000D01*
X174200000Y-122600000D02*
X174200000Y-137400000D01*
X164425000Y-118050000D02*
X167900000Y-121525000D01*
D42*
X156700000Y-138555000D02*
X159170000Y-138555000D01*
X166250000Y-138575000D02*
X166220000Y-138605000D01*
X159170000Y-138555000D02*
X159175000Y-138550000D01*
X166220000Y-138605000D02*
X166150000Y-138605000D01*
D44*
X161475000Y-128700000D02*
X161427202Y-128700000D01*
D42*
X162425000Y-129650000D02*
X161475000Y-128700000D01*
X160375000Y-126150000D02*
X160375000Y-123150000D01*
X158725000Y-118300000D02*
X158872200Y-118447200D01*
X158872200Y-119733700D02*
X158872200Y-118447200D01*
X162425000Y-130225000D02*
X162425000Y-129650000D01*
D44*
X160375000Y-126372952D02*
X160375000Y-126150000D01*
X161300000Y-127297952D02*
X160375000Y-126372952D01*
X161300000Y-128572798D02*
X161300000Y-127297952D01*
X161427202Y-128700000D02*
X161300000Y-128572798D01*
X160720002Y-126195002D02*
X160720002Y-126245002D01*
X168140742Y-140259258D02*
X168100000Y-140300000D01*
X167650000Y-133700000D02*
X168140742Y-134190742D01*
X168140742Y-134190742D02*
X168140742Y-139265742D01*
X158372200Y-120552800D02*
X158372200Y-119733700D01*
X166600000Y-131375000D02*
X167400000Y-131375000D01*
X165625000Y-130400000D02*
X166600000Y-131375000D01*
X160720002Y-124229998D02*
X160720002Y-126195002D01*
X161025000Y-123925000D02*
X160720002Y-124229998D01*
X158372200Y-120552800D02*
X157725000Y-121200000D01*
X168140742Y-139265742D02*
X168140742Y-140259258D01*
X165625000Y-129625000D02*
X165625000Y-130400000D01*
X165200000Y-129200000D02*
X165625000Y-129625000D01*
X163675000Y-129200000D02*
X165200000Y-129200000D01*
X160720002Y-126245002D02*
X163675000Y-129200000D01*
D42*
X156700000Y-139825000D02*
X159100000Y-139825000D01*
X166225000Y-139875000D02*
X166150000Y-139875000D01*
X159100000Y-139825000D02*
X159125000Y-139850000D01*
D10*
G36*
X160526260Y-97567737D02*
X160526260Y-97947940D01*
X159876960Y-97943538D01*
X159876960Y-97568519D01*
X160435655Y-96974492D01*
X160526260Y-97567737D01*
X160526260Y-97567737D01*
G37*
X160526260Y-97567737D02*
X160526260Y-97947940D01*
X159876960Y-97943538D01*
X159876960Y-97568519D01*
X160435655Y-96974492D01*
X160526260Y-97567737D01*
G36*
X159389766Y-96066421D02*
X159482115Y-96078852D01*
X160816585Y-96427076D01*
X160845464Y-96463496D01*
X160847083Y-96527404D01*
X160825509Y-96551097D01*
X160350953Y-96583545D01*
X160344080Y-96584498D01*
X160247160Y-96604868D01*
X160240485Y-96606763D01*
X159436756Y-96896559D01*
X159347872Y-96912799D01*
X159307838Y-96913415D01*
X159287680Y-96893564D01*
X159287680Y-96085432D01*
X159307950Y-96065411D01*
X159389766Y-96066421D01*
X159389766Y-96066421D01*
G37*
X159389766Y-96066421D02*
X159482115Y-96078852D01*
X160816585Y-96427076D01*
X160845464Y-96463496D01*
X160847083Y-96527404D01*
X160825509Y-96551097D01*
X160350953Y-96583545D01*
X160344080Y-96584498D01*
X160247160Y-96604868D01*
X160240485Y-96606763D01*
X159436756Y-96896559D01*
X159347872Y-96912799D01*
X159307838Y-96913415D01*
X159287680Y-96893564D01*
X159287680Y-96085432D01*
X159307950Y-96065411D01*
X159389766Y-96066421D01*
G36*
X162482060Y-96157050D02*
X162482060Y-96941222D01*
X162479902Y-96942675D01*
X161878385Y-96698241D01*
X161874174Y-96696746D01*
X161778921Y-96667638D01*
X161774594Y-96666524D01*
X161473676Y-96603274D01*
X161472129Y-96602975D01*
X161373717Y-96585507D01*
X161372162Y-96585256D01*
X161174601Y-96556578D01*
X161149500Y-96527570D01*
X161149500Y-96463171D01*
X161176232Y-96429981D01*
X162470482Y-96147725D01*
X162482060Y-96157050D01*
X162482060Y-96157050D01*
G37*
X162482060Y-96157050D02*
X162482060Y-96941222D01*
X162479902Y-96942675D01*
X161878385Y-96698241D01*
X161874174Y-96696746D01*
X161778921Y-96667638D01*
X161774594Y-96666524D01*
X161473676Y-96603274D01*
X161472129Y-96602975D01*
X161373717Y-96585507D01*
X161372162Y-96585256D01*
X161174601Y-96556578D01*
X161149500Y-96527570D01*
X161149500Y-96463171D01*
X161176232Y-96429981D01*
X162470482Y-96147725D01*
X162482060Y-96157050D01*
G36*
X161406429Y-96896109D02*
X161482747Y-96921838D01*
X162571942Y-97705500D01*
X162601918Y-97763445D01*
X162603435Y-97960740D01*
X162583456Y-97980704D01*
X161820746Y-97974277D01*
X161799740Y-97953093D01*
X161799740Y-97758720D01*
X161797901Y-97745286D01*
X161772021Y-97652505D01*
X161766641Y-97640059D01*
X161438068Y-97096907D01*
X161432197Y-97089058D01*
X161427142Y-97084248D01*
X161373925Y-97040261D01*
X161365794Y-97034787D01*
X161353599Y-97030147D01*
X161282967Y-97013409D01*
X161276959Y-97012368D01*
X161201775Y-97004015D01*
X161272684Y-96921635D01*
X161334675Y-96894195D01*
X161406429Y-96896109D01*
X161406429Y-96896109D01*
G37*
X161406429Y-96896109D02*
X161482747Y-96921838D01*
X162571942Y-97705500D01*
X162601918Y-97763445D01*
X162603435Y-97960740D01*
X162583456Y-97980704D01*
X161820746Y-97974277D01*
X161799740Y-97953093D01*
X161799740Y-97758720D01*
X161797901Y-97745286D01*
X161772021Y-97652505D01*
X161766641Y-97640059D01*
X161438068Y-97096907D01*
X161432197Y-97089058D01*
X161427142Y-97084248D01*
X161373925Y-97040261D01*
X161365794Y-97034787D01*
X161353599Y-97030147D01*
X161282967Y-97013409D01*
X161276959Y-97012368D01*
X161201775Y-97004015D01*
X161272684Y-96921635D01*
X161334675Y-96894195D01*
X161406429Y-96896109D01*
G36*
X160632330Y-99404022D02*
X161369162Y-100527924D01*
X161392366Y-100605722D01*
X161387355Y-108937564D01*
X161361090Y-109008993D01*
X160501386Y-110021134D01*
X160438994Y-110050000D01*
X159960940Y-110050000D01*
X159898251Y-110021193D01*
X159027020Y-109006137D01*
X159000784Y-108935057D01*
X159018320Y-100585400D01*
X159041435Y-100507126D01*
X159748700Y-99409004D01*
X159803554Y-99378885D01*
X160577328Y-99374513D01*
X160632330Y-99404022D01*
X160632330Y-99404022D01*
G37*
X160632330Y-99404022D02*
X161369162Y-100527924D01*
X161392366Y-100605722D01*
X161387355Y-108937564D01*
X161361090Y-109008993D01*
X160501386Y-110021134D01*
X160438994Y-110050000D01*
X159960940Y-110050000D01*
X159898251Y-110021193D01*
X159027020Y-109006137D01*
X159000784Y-108935057D01*
X159018320Y-100585400D01*
X159041435Y-100507126D01*
X159748700Y-99409004D01*
X159803554Y-99378885D01*
X160577328Y-99374513D01*
X160632330Y-99404022D01*
D44*
G36*
X159664013Y-97371644D02*
X159654473Y-97379473D01*
X159624482Y-97416018D01*
X159602196Y-97457712D01*
X159588473Y-97502952D01*
X159583839Y-97550000D01*
X159583839Y-98350000D01*
X159588473Y-98397048D01*
X159602196Y-98442288D01*
X159624482Y-98483982D01*
X159654473Y-98520527D01*
X159691018Y-98550518D01*
X159732712Y-98572804D01*
X159777952Y-98586527D01*
X159825000Y-98591161D01*
X160575000Y-98591161D01*
X160622048Y-98586527D01*
X160667288Y-98572804D01*
X160708982Y-98550518D01*
X160745527Y-98520527D01*
X160775518Y-98483982D01*
X160797804Y-98442288D01*
X160811527Y-98397048D01*
X160816161Y-98350000D01*
X160816161Y-97998778D01*
X160816260Y-97998280D01*
X160816260Y-97749168D01*
X160818024Y-97731800D01*
X160821784Y-97698276D01*
X160821811Y-97694517D01*
X160821817Y-97694454D01*
X160821811Y-97694395D01*
X160821820Y-97693180D01*
X160821820Y-97292373D01*
X160842397Y-97286161D01*
X160900000Y-97286161D01*
X160947048Y-97281527D01*
X160992288Y-97267804D01*
X161000000Y-97263682D01*
X161007712Y-97267804D01*
X161052952Y-97281527D01*
X161100000Y-97286161D01*
X161121657Y-97286161D01*
X161125231Y-97287294D01*
X161220724Y-97297904D01*
X161501510Y-97762062D01*
X161508839Y-97788335D01*
X161508839Y-98200000D01*
X161513473Y-98247048D01*
X161527196Y-98292288D01*
X161549482Y-98333982D01*
X161579473Y-98370527D01*
X161616018Y-98400518D01*
X161657712Y-98422804D01*
X161702952Y-98436527D01*
X161750000Y-98441161D01*
X162650000Y-98441161D01*
X162697048Y-98436527D01*
X162742288Y-98422804D01*
X162783982Y-98400518D01*
X162820527Y-98370527D01*
X162850518Y-98333982D01*
X162872804Y-98292288D01*
X162886527Y-98247048D01*
X162891161Y-98200000D01*
X162891161Y-97992167D01*
X162893588Y-97979456D01*
X162891818Y-97749254D01*
X162891161Y-97746599D01*
X162891161Y-97700000D01*
X162886527Y-97652952D01*
X162872804Y-97607712D01*
X162850518Y-97566018D01*
X162820527Y-97529473D01*
X162783982Y-97499482D01*
X162758686Y-97485961D01*
X162751020Y-97477083D01*
X162405130Y-97228220D01*
X162471823Y-97249376D01*
X162610497Y-97264930D01*
X162620480Y-97265000D01*
X174670000Y-97265000D01*
X174670000Y-111416862D01*
X174666862Y-111420000D01*
X171672200Y-111420000D01*
X171672200Y-109153861D01*
X173011000Y-109153861D01*
X173058048Y-109149227D01*
X173103288Y-109135504D01*
X173144982Y-109113218D01*
X173181527Y-109083227D01*
X173211518Y-109046682D01*
X173233804Y-109004988D01*
X173247527Y-108959748D01*
X173252161Y-108912700D01*
X173252161Y-106880700D01*
X173247527Y-106833652D01*
X173233804Y-106788412D01*
X173211518Y-106746718D01*
X173181527Y-106710173D01*
X173144982Y-106680182D01*
X173103288Y-106657896D01*
X173058048Y-106644173D01*
X173011000Y-106639539D01*
X169353400Y-106639539D01*
X169306352Y-106644173D01*
X169261112Y-106657896D01*
X169219418Y-106680182D01*
X169182873Y-106710173D01*
X169152882Y-106746718D01*
X169130596Y-106788412D01*
X169116873Y-106833652D01*
X169112239Y-106880700D01*
X169112239Y-108912700D01*
X169116873Y-108959748D01*
X169130596Y-109004988D01*
X169152882Y-109046682D01*
X169182873Y-109083227D01*
X169219418Y-109113218D01*
X169261112Y-109135504D01*
X169306352Y-109149227D01*
X169353400Y-109153861D01*
X170692200Y-109153861D01*
X170692200Y-111420000D01*
X160561480Y-111420000D01*
X160589488Y-111411504D01*
X160631182Y-111389218D01*
X160667727Y-111359227D01*
X160697718Y-111322682D01*
X160720004Y-111280988D01*
X160733727Y-111235748D01*
X160738361Y-111188700D01*
X160738361Y-110774102D01*
X160746911Y-110747149D01*
X160747239Y-110744221D01*
X160748097Y-110741416D01*
X160753310Y-110690098D01*
X160759074Y-110638707D01*
X160759115Y-110632955D01*
X160759125Y-110632852D01*
X160759116Y-110632756D01*
X160759129Y-110630900D01*
X160759129Y-110165650D01*
X161587871Y-109189959D01*
X161630205Y-109117418D01*
X161662604Y-109029310D01*
X161677350Y-108946624D01*
X161682370Y-100598584D01*
X161672359Y-100529845D01*
X161644975Y-100438030D01*
X161615697Y-100375038D01*
X160867885Y-99234388D01*
X160816161Y-99187021D01*
X160816161Y-99050000D01*
X160811527Y-99002952D01*
X160797804Y-98957712D01*
X160775518Y-98916018D01*
X160745527Y-98879473D01*
X160708982Y-98849482D01*
X160667288Y-98827196D01*
X160622048Y-98813473D01*
X160575000Y-98808839D01*
X159825000Y-98808839D01*
X159777952Y-98813473D01*
X159732712Y-98827196D01*
X159691018Y-98849482D01*
X159654473Y-98879473D01*
X159624482Y-98916018D01*
X159602196Y-98957712D01*
X159588473Y-99002952D01*
X159583839Y-99050000D01*
X159583839Y-99174119D01*
X159511754Y-99241321D01*
X158793742Y-100356129D01*
X158765341Y-100418112D01*
X158738162Y-100510148D01*
X158728336Y-100577616D01*
X158710766Y-108943436D01*
X158725613Y-109027046D01*
X158758073Y-109114987D01*
X158801108Y-109188193D01*
X159606277Y-110126282D01*
X159606039Y-110128700D01*
X159606039Y-111188700D01*
X159610673Y-111235748D01*
X159624396Y-111280988D01*
X159646682Y-111322682D01*
X159676673Y-111359227D01*
X159713218Y-111389218D01*
X159754912Y-111411504D01*
X159782920Y-111420000D01*
X158661480Y-111420000D01*
X158689488Y-111411504D01*
X158731182Y-111389218D01*
X158767727Y-111359227D01*
X158797718Y-111322682D01*
X158820004Y-111280988D01*
X158833727Y-111235748D01*
X158838361Y-111188700D01*
X158838361Y-110128700D01*
X158833727Y-110081652D01*
X158820004Y-110036412D01*
X158797718Y-109994718D01*
X158767727Y-109958173D01*
X158731182Y-109928182D01*
X158689488Y-109905896D01*
X158644248Y-109892173D01*
X158597200Y-109887539D01*
X157947200Y-109887539D01*
X157900152Y-109892173D01*
X157854912Y-109905896D01*
X157813218Y-109928182D01*
X157776673Y-109958173D01*
X157746682Y-109994718D01*
X157724396Y-110036412D01*
X157710673Y-110081652D01*
X157706039Y-110128700D01*
X157706039Y-110518700D01*
X157232864Y-110518700D01*
X157222718Y-110499718D01*
X157192727Y-110463173D01*
X157156182Y-110433182D01*
X157114488Y-110410896D01*
X157069248Y-110397173D01*
X157022200Y-110392539D01*
X156122200Y-110392539D01*
X156075152Y-110397173D01*
X156029912Y-110410896D01*
X155988218Y-110433182D01*
X155951673Y-110463173D01*
X155921682Y-110499718D01*
X155899396Y-110541412D01*
X155885673Y-110586652D01*
X155881039Y-110633700D01*
X155881039Y-111133700D01*
X155885673Y-111180748D01*
X155899396Y-111225988D01*
X155921682Y-111267682D01*
X155951673Y-111304227D01*
X155988218Y-111334218D01*
X156029912Y-111356504D01*
X156075152Y-111370227D01*
X156122200Y-111374861D01*
X157022200Y-111374861D01*
X157069248Y-111370227D01*
X157114488Y-111356504D01*
X157156182Y-111334218D01*
X157192727Y-111304227D01*
X157222718Y-111267682D01*
X157232864Y-111248700D01*
X157714602Y-111248700D01*
X157724396Y-111280988D01*
X157746682Y-111322682D01*
X157776673Y-111359227D01*
X157813218Y-111389218D01*
X157854912Y-111411504D01*
X157882920Y-111420000D01*
X149083138Y-111420000D01*
X149080000Y-111416862D01*
X149080000Y-97204031D01*
X149088017Y-97204930D01*
X149098000Y-97205000D01*
X159315940Y-97205000D01*
X159336205Y-97203013D01*
X159356479Y-97202701D01*
X159395921Y-97198821D01*
X159411813Y-97195917D01*
X159447465Y-97192798D01*
X159451071Y-97191750D01*
X159454818Y-97191383D01*
X159482690Y-97182968D01*
X159492951Y-97181093D01*
X159531221Y-97170773D01*
X159564174Y-97158891D01*
X159581468Y-97153867D01*
X159584807Y-97152136D01*
X159588405Y-97151050D01*
X159593638Y-97148268D01*
X160018018Y-96995251D01*
X159664013Y-97371644D01*
X159664013Y-97371644D01*
G37*
X159664013Y-97371644D02*
X159654473Y-97379473D01*
X159624482Y-97416018D01*
X159602196Y-97457712D01*
X159588473Y-97502952D01*
X159583839Y-97550000D01*
X159583839Y-98350000D01*
X159588473Y-98397048D01*
X159602196Y-98442288D01*
X159624482Y-98483982D01*
X159654473Y-98520527D01*
X159691018Y-98550518D01*
X159732712Y-98572804D01*
X159777952Y-98586527D01*
X159825000Y-98591161D01*
X160575000Y-98591161D01*
X160622048Y-98586527D01*
X160667288Y-98572804D01*
X160708982Y-98550518D01*
X160745527Y-98520527D01*
X160775518Y-98483982D01*
X160797804Y-98442288D01*
X160811527Y-98397048D01*
X160816161Y-98350000D01*
X160816161Y-97998778D01*
X160816260Y-97998280D01*
X160816260Y-97749168D01*
X160818024Y-97731800D01*
X160821784Y-97698276D01*
X160821811Y-97694517D01*
X160821817Y-97694454D01*
X160821811Y-97694395D01*
X160821820Y-97693180D01*
X160821820Y-97292373D01*
X160842397Y-97286161D01*
X160900000Y-97286161D01*
X160947048Y-97281527D01*
X160992288Y-97267804D01*
X161000000Y-97263682D01*
X161007712Y-97267804D01*
X161052952Y-97281527D01*
X161100000Y-97286161D01*
X161121657Y-97286161D01*
X161125231Y-97287294D01*
X161220724Y-97297904D01*
X161501510Y-97762062D01*
X161508839Y-97788335D01*
X161508839Y-98200000D01*
X161513473Y-98247048D01*
X161527196Y-98292288D01*
X161549482Y-98333982D01*
X161579473Y-98370527D01*
X161616018Y-98400518D01*
X161657712Y-98422804D01*
X161702952Y-98436527D01*
X161750000Y-98441161D01*
X162650000Y-98441161D01*
X162697048Y-98436527D01*
X162742288Y-98422804D01*
X162783982Y-98400518D01*
X162820527Y-98370527D01*
X162850518Y-98333982D01*
X162872804Y-98292288D01*
X162886527Y-98247048D01*
X162891161Y-98200000D01*
X162891161Y-97992167D01*
X162893588Y-97979456D01*
X162891818Y-97749254D01*
X162891161Y-97746599D01*
X162891161Y-97700000D01*
X162886527Y-97652952D01*
X162872804Y-97607712D01*
X162850518Y-97566018D01*
X162820527Y-97529473D01*
X162783982Y-97499482D01*
X162758686Y-97485961D01*
X162751020Y-97477083D01*
X162405130Y-97228220D01*
X162471823Y-97249376D01*
X162610497Y-97264930D01*
X162620480Y-97265000D01*
X174670000Y-97265000D01*
X174670000Y-111416862D01*
X174666862Y-111420000D01*
X171672200Y-111420000D01*
X171672200Y-109153861D01*
X173011000Y-109153861D01*
X173058048Y-109149227D01*
X173103288Y-109135504D01*
X173144982Y-109113218D01*
X173181527Y-109083227D01*
X173211518Y-109046682D01*
X173233804Y-109004988D01*
X173247527Y-108959748D01*
X173252161Y-108912700D01*
X173252161Y-106880700D01*
X173247527Y-106833652D01*
X173233804Y-106788412D01*
X173211518Y-106746718D01*
X173181527Y-106710173D01*
X173144982Y-106680182D01*
X173103288Y-106657896D01*
X173058048Y-106644173D01*
X173011000Y-106639539D01*
X169353400Y-106639539D01*
X169306352Y-106644173D01*
X169261112Y-106657896D01*
X169219418Y-106680182D01*
X169182873Y-106710173D01*
X169152882Y-106746718D01*
X169130596Y-106788412D01*
X169116873Y-106833652D01*
X169112239Y-106880700D01*
X169112239Y-108912700D01*
X169116873Y-108959748D01*
X169130596Y-109004988D01*
X169152882Y-109046682D01*
X169182873Y-109083227D01*
X169219418Y-109113218D01*
X169261112Y-109135504D01*
X169306352Y-109149227D01*
X169353400Y-109153861D01*
X170692200Y-109153861D01*
X170692200Y-111420000D01*
X160561480Y-111420000D01*
X160589488Y-111411504D01*
X160631182Y-111389218D01*
X160667727Y-111359227D01*
X160697718Y-111322682D01*
X160720004Y-111280988D01*
X160733727Y-111235748D01*
X160738361Y-111188700D01*
X160738361Y-110774102D01*
X160746911Y-110747149D01*
X160747239Y-110744221D01*
X160748097Y-110741416D01*
X160753310Y-110690098D01*
X160759074Y-110638707D01*
X160759115Y-110632955D01*
X160759125Y-110632852D01*
X160759116Y-110632756D01*
X160759129Y-110630900D01*
X160759129Y-110165650D01*
X161587871Y-109189959D01*
X161630205Y-109117418D01*
X161662604Y-109029310D01*
X161677350Y-108946624D01*
X161682370Y-100598584D01*
X161672359Y-100529845D01*
X161644975Y-100438030D01*
X161615697Y-100375038D01*
X160867885Y-99234388D01*
X160816161Y-99187021D01*
X160816161Y-99050000D01*
X160811527Y-99002952D01*
X160797804Y-98957712D01*
X160775518Y-98916018D01*
X160745527Y-98879473D01*
X160708982Y-98849482D01*
X160667288Y-98827196D01*
X160622048Y-98813473D01*
X160575000Y-98808839D01*
X159825000Y-98808839D01*
X159777952Y-98813473D01*
X159732712Y-98827196D01*
X159691018Y-98849482D01*
X159654473Y-98879473D01*
X159624482Y-98916018D01*
X159602196Y-98957712D01*
X159588473Y-99002952D01*
X159583839Y-99050000D01*
X159583839Y-99174119D01*
X159511754Y-99241321D01*
X158793742Y-100356129D01*
X158765341Y-100418112D01*
X158738162Y-100510148D01*
X158728336Y-100577616D01*
X158710766Y-108943436D01*
X158725613Y-109027046D01*
X158758073Y-109114987D01*
X158801108Y-109188193D01*
X159606277Y-110126282D01*
X159606039Y-110128700D01*
X159606039Y-111188700D01*
X159610673Y-111235748D01*
X159624396Y-111280988D01*
X159646682Y-111322682D01*
X159676673Y-111359227D01*
X159713218Y-111389218D01*
X159754912Y-111411504D01*
X159782920Y-111420000D01*
X158661480Y-111420000D01*
X158689488Y-111411504D01*
X158731182Y-111389218D01*
X158767727Y-111359227D01*
X158797718Y-111322682D01*
X158820004Y-111280988D01*
X158833727Y-111235748D01*
X158838361Y-111188700D01*
X158838361Y-110128700D01*
X158833727Y-110081652D01*
X158820004Y-110036412D01*
X158797718Y-109994718D01*
X158767727Y-109958173D01*
X158731182Y-109928182D01*
X158689488Y-109905896D01*
X158644248Y-109892173D01*
X158597200Y-109887539D01*
X157947200Y-109887539D01*
X157900152Y-109892173D01*
X157854912Y-109905896D01*
X157813218Y-109928182D01*
X157776673Y-109958173D01*
X157746682Y-109994718D01*
X157724396Y-110036412D01*
X157710673Y-110081652D01*
X157706039Y-110128700D01*
X157706039Y-110518700D01*
X157232864Y-110518700D01*
X157222718Y-110499718D01*
X157192727Y-110463173D01*
X157156182Y-110433182D01*
X157114488Y-110410896D01*
X157069248Y-110397173D01*
X157022200Y-110392539D01*
X156122200Y-110392539D01*
X156075152Y-110397173D01*
X156029912Y-110410896D01*
X155988218Y-110433182D01*
X155951673Y-110463173D01*
X155921682Y-110499718D01*
X155899396Y-110541412D01*
X155885673Y-110586652D01*
X155881039Y-110633700D01*
X155881039Y-111133700D01*
X155885673Y-111180748D01*
X155899396Y-111225988D01*
X155921682Y-111267682D01*
X155951673Y-111304227D01*
X155988218Y-111334218D01*
X156029912Y-111356504D01*
X156075152Y-111370227D01*
X156122200Y-111374861D01*
X157022200Y-111374861D01*
X157069248Y-111370227D01*
X157114488Y-111356504D01*
X157156182Y-111334218D01*
X157192727Y-111304227D01*
X157222718Y-111267682D01*
X157232864Y-111248700D01*
X157714602Y-111248700D01*
X157724396Y-111280988D01*
X157746682Y-111322682D01*
X157776673Y-111359227D01*
X157813218Y-111389218D01*
X157854912Y-111411504D01*
X157882920Y-111420000D01*
X149083138Y-111420000D01*
X149080000Y-111416862D01*
X149080000Y-97204031D01*
X149088017Y-97204930D01*
X149098000Y-97205000D01*
X159315940Y-97205000D01*
X159336205Y-97203013D01*
X159356479Y-97202701D01*
X159395921Y-97198821D01*
X159411813Y-97195917D01*
X159447465Y-97192798D01*
X159451071Y-97191750D01*
X159454818Y-97191383D01*
X159482690Y-97182968D01*
X159492951Y-97181093D01*
X159531221Y-97170773D01*
X159564174Y-97158891D01*
X159581468Y-97153867D01*
X159584807Y-97152136D01*
X159588405Y-97151050D01*
X159593638Y-97148268D01*
X160018018Y-96995251D01*
X159664013Y-97371644D01*
G36*
X174670000Y-89583138D02*
X174670000Y-95835000D01*
X162620480Y-95835000D01*
X162481602Y-95848617D01*
X162447188Y-95859007D01*
X162432070Y-95859285D01*
X161097214Y-96150397D01*
X161083697Y-96155445D01*
X161052952Y-96158473D01*
X161007712Y-96172196D01*
X161000000Y-96176318D01*
X160992288Y-96172196D01*
X160947048Y-96158473D01*
X160915645Y-96155380D01*
X160905978Y-96150691D01*
X159552398Y-95797481D01*
X159523817Y-95791850D01*
X159425441Y-95778608D01*
X159396388Y-95776481D01*
X159334572Y-95775718D01*
X159323908Y-95774559D01*
X159318650Y-95775019D01*
X159315940Y-95775000D01*
X149098000Y-95775000D01*
X149080000Y-95776765D01*
X149080000Y-89583138D01*
X149083138Y-89580000D01*
X174666862Y-89580000D01*
X174670000Y-89583138D01*
X174670000Y-89583138D01*
G37*
X174670000Y-89583138D02*
X174670000Y-95835000D01*
X162620480Y-95835000D01*
X162481602Y-95848617D01*
X162447188Y-95859007D01*
X162432070Y-95859285D01*
X161097214Y-96150397D01*
X161083697Y-96155445D01*
X161052952Y-96158473D01*
X161007712Y-96172196D01*
X161000000Y-96176318D01*
X160992288Y-96172196D01*
X160947048Y-96158473D01*
X160915645Y-96155380D01*
X160905978Y-96150691D01*
X159552398Y-95797481D01*
X159523817Y-95791850D01*
X159425441Y-95778608D01*
X159396388Y-95776481D01*
X159334572Y-95775718D01*
X159323908Y-95774559D01*
X159318650Y-95775019D01*
X159315940Y-95775000D01*
X149098000Y-95775000D01*
X149080000Y-95776765D01*
X149080000Y-89583138D01*
X149083138Y-89580000D01*
X174666862Y-89580000D01*
X174670000Y-89583138D01*
M02*
